Coordinates
version=1
nRows=9
nColumns=63
inDegrees=yes

Units are S.I. units (second, meters, Newtons, ...)
If the header above contains a line with 'inDegrees', this indicates whether rotational values are in degrees (yes) or radians (no).

endheader
time	pelvis_tilt	pelvis_list	pelvis_rotation	pelvis_tx	pelvis_ty	pelvis_tz	hip_flexion_r	hip_adduction_r	hip_rotation_r	knee_angle_r	knee_angle_r_beta	ankle_angle_r	subtalar_angle_r	mtp_angle_r	hip_flexion_l	hip_adduction_l	hip_rotation_l	knee_angle_l	knee_angle_l_beta	ankle_angle_l	subtalar_angle_l	mtp_angle_l	L5_S1_Flex_Ext	L5_S1_Lat_Bending	L5_S1_axial_rotation	L4_L5_Flex_Ext	L4_L5_Lat_Bending	L4_L5_axial_rotation	L3_L4_Flex_Ext	L3_L4_Lat_Bending	L3_L4_axial_rotation	L2_L3_Flex_Ext	L2_L3_Lat_Bending	L2_L3_axial_rotation	L1_L2_Flex_Ext	L1_L2_Lat_Bending	L1_L2_axial_rotation	L1_T12_Flex_Ext	L1_T12_Lat_Bending	L1_T12_axial_rotation	Abs_r3	Abs_r2	Abs_r1	Abs_t1	Abs_t2	neck_flexion	neck_bending	neck_rotation	arm_flex_r	arm_add_r	arm_rot_r	elbow_flex_r	pro_sup_r	wrist_flex_r	wrist_dev_r	arm_flex_l	arm_add_l	arm_rot_l	elbow_flex_l	pro_sup_l	wrist_flex_l	wrist_dev_l
      1.86440678	     -6.94662598	     -4.52766482	     60.35024741	      0.22277966	      0.96068341	      0.51699155	     10.95408855	      0.15148037	     16.76522170	     13.40927948	      0.23403608	     21.82289746	    -13.99796655	      0.00000000	      4.51219703	      0.37356308	    -18.30458262	      4.37985398	      0.07644287	     27.31909271	      9.07198843	      0.00000000	      0.12399420	      0.13171158	      2.26855511	      0.23026963	      0.17517641	      2.41033980	      0.20371008	      0.32024354	      2.41033980	      0.14171297	      0.32024354	      1.98498572	      0.11514102	      0.26858626	      1.84320103	      0.07085029	      0.20402124	      1.70141633	      0.88567819	      1.48994777	     12.61702294	      0.00000000	      0.00000000	     27.95121629	     -6.19511018	     -5.91033212	     -4.92868793	    -17.42374668	     -6.26990286	     74.14436722	     86.90299240	     -7.94503662	     20.11261441	     16.38145326	    -19.25734282	     30.07729272	     45.70484281	     78.88601678	      0.23426145	     19.28066990
      1.88135593	     -6.96356335	     -4.53527631	     59.97604941	      0.22319363	      0.96040901	      0.51785061	     10.90574718	      0.21815522	     16.92056159	     13.26466625	      0.23151210	     21.57567944	    -14.02628325	      0.00000000	      4.56134041	      0.30969632	    -18.07151013	      4.56159452	      0.07961484	     26.85197499	      7.95088488	      0.00000000	      0.12033804	      0.14022077	      2.28555068	      0.22347978	      0.18649363	      2.42839760	      0.19770337	      0.34093278	      2.42839760	      0.13753435	      0.34093278	      1.99985685	      0.11174591	      0.28593820	      1.85700993	      0.06876116	      0.21720197	      1.71416301	      0.85956261	      1.58620541	     12.71154722	      0.00000000	      0.00000000	     27.97409505	     -6.22101708	     -5.69009922	     -5.18780137	    -17.22715731	     -6.22357091	     74.45061086	     87.05450988	     -7.18440450	     20.55638206	     16.46522751	    -19.01985108	     31.63335755	     43.11913097	     76.25791329	     -0.22506296	     17.18144466
      1.89830508	     -7.04245271	     -4.47100923	     59.75008301	      0.22354806	      0.96009061	      0.51911526	     10.84418270	      0.19685552	     17.03470386	     13.10391850	      0.22870652	     21.43908588	    -14.19656303	      0.00000000	      4.68543899	      0.28235313	    -18.33220354	      4.89133847	      0.08536996	     26.66048814	      7.76241369	      0.00000000	      0.11072171	      0.12240120	      2.25167628	      0.20562130	      0.16279360	      2.39240605	      0.18190470	      0.29760628	      2.39240605	      0.12654385	      0.29760628	      1.97021674	      0.10281618	      0.24960053	      1.82948698	      0.06326639	      0.18959946	      1.68875721	      0.79087414	      1.38462685	     12.52314796	      0.00000000	      0.00000000	     27.97207117	     -5.90239763	     -5.71285127	     -5.10496909	    -17.03751030	     -5.71621647	     74.28811798	     87.18986997	     -6.52391202	     20.73459465	     16.10735164	    -18.68445534	     31.52079201	     40.82589374	     75.90837598	     -0.17972688	     14.14334350
      1.91525424	     -7.11197744	     -4.36912992	     59.70160739	      0.22365932	      0.95982953	      0.52066786	     10.73085110	      0.14181617	     17.18489482	     12.86000158	      0.22444937	     21.20752627	    -14.57543054	      0.00000000	      4.86354478	      0.24061314	    -18.53153617	      5.33112811	      0.09304574	     26.66971279	      7.94936648	      0.00000000	      0.09536975	      0.09340381	      2.20396822	      0.17711117	      0.12422706	      2.34171623	      0.15668297	      0.22710202	      2.34171623	      0.10899809	      0.22710202	      1.92847219	      0.08856035	      0.19046904	      1.79072418	      0.05449428	      0.14468250	      1.65297616	      0.68121661	      1.05660255	     12.25781003	      0.00000000	      0.00000000	     27.94361079	     -5.43717886	     -5.96694809	     -4.86710045	    -16.87384906	     -5.10795131	     73.88512367	     87.32517955	     -6.08639552	     20.65885112	     16.06855587	    -18.42161536	     32.04690366	     38.32482125	     76.10032640	     -0.16073344	     10.01743711
      1.93220339	     -7.25554964	     -4.27580849	     59.73780741	      0.22386917	      0.95952577	      0.52235447	     10.67133095	      0.00765408	     17.21179901	     12.59340897	      0.21979645	     21.07654540	    -14.94427399	      0.00000000	      5.14589149	      0.23933343	    -18.50822060	      5.84214800	      0.10196472	     26.73674399	      8.10782178	      0.00000000	      0.08734654	      0.04214925	      2.12741001	      0.16221126	      0.05605851	      2.26037313	      0.14350164	      0.10248169	      2.26037313	      0.09982836	      0.10248169	      1.86148376	      0.08111000	      0.08595076	      1.72852063	      0.04990981	      0.06528919	      1.59555751	      0.62390762	      0.47680078	     11.83201624	      0.00000000	      0.00000000	     27.92064841	     -4.78895668	     -6.66521191	     -4.32478518	    -16.73545143	     -4.09515105	     73.11950595	     87.53389620	     -5.83590513	     20.32514911	     15.89636777	    -18.32929417	     32.23951695	     36.24789648	     76.79210925	     -0.52739652	      6.26839539
      1.94915254	     -7.33431484	     -4.29148992	     59.93266558	      0.22381219	      0.95926859	      0.52377274	     10.64680803	     -0.05933126	     17.13746734	     12.26702965	      0.21410006	     20.88418943	    -15.45959207	      0.00000000	      5.51932082	      0.13998099	    -18.31379307	      6.34168996	      0.11068337	     26.92559813	      8.45152019	      0.00000000	      0.09374737	      0.00503378	      2.07208693	      0.17409824	      0.00669493	      2.20159237	      0.15401755	      0.01223914	      2.20159237	      0.10714387	      0.01223914	      1.81307607	      0.08705381	      0.01026489	      1.68357063	      0.05356725	      0.00779733	      1.55406520	      0.66962809	      0.05694315	     11.52432589	      0.00000000	      0.00000000	     27.91500922	     -4.23679174	     -7.25427150	     -3.86512150	    -16.76421044	     -3.16934674	     72.30914121	     87.76182580	     -5.84020479	     19.62105499	     16.05970324	    -18.10895496	     33.17157733	     33.92902721	     78.05203948	     -0.80058344	      2.81986535
      1.96610169	     -7.37586216	     -4.38647175	     60.07839172	      0.22379583	      0.95899310	      0.52506947	     10.68967299	     -0.05817638	     17.05618684	     11.93580270	      0.20831906	     20.76435428	    -15.82923310	      0.00000000	      5.93106573	     -0.02618445	    -18.11710970	      6.76190704	      0.11801754	     27.22992969	      8.85303053	      0.00000000	      0.10738121	     -0.02586465	      2.08897038	      0.19941764	     -0.03439999	      2.21953103	      0.17641659	     -0.06288732	      2.21953103	      0.12272598	     -0.06288732	      1.82784908	      0.09971419	     -0.05274320	      1.69728843	      0.06135762	     -0.04006435	      1.56672778	      0.76701323	     -0.29258614	     11.61822656	      0.00000000	      0.00000000	     27.92822152	     -3.87973870	     -8.11754168	     -3.52489395	    -16.85577666	     -2.51533916	     71.46930699	     87.97082525	     -5.99745165	     18.50456767	     16.47408722	    -17.81157724	     34.65016419	     31.68885972	     79.41848727	     -1.04760606	      0.58937482
      1.98305085	     -7.35420020	     -4.53598964	     60.16635726	      0.22378841	      0.95873213	      0.52611231	     10.74444434	      0.01490969	     16.98636769	     11.59502972	      0.20237145	     20.76284639	    -15.92596097	      0.00000000	      6.29646116	     -0.25574061	    -17.91727784	      7.02656801	      0.12263675	     27.63387772	      9.33552632	      0.00000000	      0.12051832	     -0.04661070	      2.19278886	      0.22381457	     -0.06199223	      2.32983816	      0.19799955	     -0.11332925	      2.32983816	      0.13774039	     -0.11332925	      1.91869025	      0.11191331	     -0.09504854	      1.78164095	      0.06886417	     -0.07219997	      1.64459164	      0.86085031	     -0.52726954	     12.19563379	      0.00000000	      0.00000000	     27.93889977	     -3.82051842	     -9.11781038	     -3.29358948	    -16.92439014	     -2.31690822	     70.49432002	     88.09738694	     -6.32351057	     16.90816009	     17.08195072	    -17.42615640	     36.87386592	     29.57214476	     80.81492286	     -1.25638435	     -0.75285362
      2.00000000	     -7.18680892	     -4.67988949	     60.26417331	      0.22372118	      0.95860356	      0.52665033	     10.66063315	      0.17530160	     16.88686131	     11.21569950	      0.19575088	     20.77688693	    -15.81364905	      0.00000000	      6.55008858	     -0.59018415	    -17.63677591	      7.25824704	      0.12668031	     28.08119500	      9.72382656	      0.00000000	      0.12107288	     -0.04864004	      2.35136604	      0.22484445	     -0.06469125	      2.49832642	      0.19891064	     -0.11826338	      2.49832642	      0.13837420	     -0.11826338	      2.05744528	      0.11242828	     -0.09918676	      1.91048491	      0.06918104	     -0.07534341	      1.76352453	      0.86481148	     -0.55022581	     13.07759250	      0.00000000	      0.00000000	     27.93770485	     -3.83899996	    -10.00171695	     -3.06890694	    -16.96742759	     -2.48806332	     69.22467293	     88.10257880	     -6.65420556	     15.00142680	     17.76484772	    -16.95659799	     39.82769109	     27.57332044	     82.40900328	     -1.45854650	     -1.36606573
